<svg xmlns="http://www.w3.org/2000/svg" xmlns:xlink="http://www.w3.org/1999/xlink" width="500" zoomAndPan="magnify" viewBox="0 0 375 374.999991" height="500" preserveAspectRatio="xMidYMid meet" version="1.0"><defs><g/><clipPath id="d8b80b6e94"><path d="M 129.109375 97.054688 L 246 97.054688 L 246 214 L 129.109375 214 Z M 129.109375 97.054688 " clip-rule="nonzero"/></clipPath></defs><g clip-path="url(#d8b80b6e94)"><path fill="#125cfc" d="M 190.1875 179.691406 C 197.300781 173.125 209.554688 165.160156 228.558594 162.828125 L 217.960938 137.34375 C 217.960938 137.34375 204.625 133.519531 191.800781 142.445312 C 206.914062 129.296875 224.074219 134.21875 224.074219 134.21875 L 240.441406 170.722656 C 218.585938 164.347656 197.675781 175.128906 190.1875 179.691406 Z M 187.265625 175.066406 C 178.515625 168.789062 157.832031 156.527344 134.589844 160.902344 L 154.628906 125.832031 C 154.628906 125.832031 175.105469 126.5625 190.261719 142.601562 Z M 135.132812 171.4375 L 139.804688 161.722656 C 142.960938 161.46875 146.050781 161.5 149.050781 161.75 L 148.449219 163.097656 C 166.519531 165.804688 178.886719 173.023438 186.835938 179.742188 C 186.835938 179.742188 161.3125 163.523438 135.132812 171.4375 Z M 141.78125 182.054688 L 146.972656 171.261719 C 150.0625 171.167969 153.082031 171.324219 156.007812 171.675781 L 155.097656 173.714844 C 168.457031 175.714844 178.699219 180.179688 186.339844 185.089844 C 186.339844 185.089844 160.628906 174.714844 141.78125 182.054688 Z M 187.515625 97.070312 C 155.265625 97.070312 129.125 123.214844 129.125 155.460938 C 129.125 187.707031 155.265625 213.851562 187.515625 213.851562 C 219.761719 213.851562 245.902344 187.707031 245.902344 155.460938 C 245.902344 123.214844 219.761719 97.070312 187.515625 97.070312 " fill-opacity="1" fill-rule="nonzero"/></g><g fill="#040d16" fill-opacity="1"><g transform="translate(87.665211, 287.193232)"><g><path d="M 3.5 0.0625 C 2.90625 0.0625 2.335938 -0.03125 1.796875 -0.21875 C 1.253906 -0.40625 0.832031 -0.65625 0.53125 -0.96875 L 0.859375 -1.625 C 1.148438 -1.332031 1.535156 -1.097656 2.015625 -0.921875 C 2.492188 -0.742188 2.988281 -0.65625 3.5 -0.65625 C 4.21875 -0.65625 4.753906 -0.785156 5.109375 -1.046875 C 5.460938 -1.304688 5.640625 -1.644531 5.640625 -2.0625 C 5.640625 -2.382812 5.539062 -2.640625 5.34375 -2.828125 C 5.15625 -3.015625 4.921875 -3.160156 4.640625 -3.265625 C 4.359375 -3.367188 3.96875 -3.484375 3.46875 -3.609375 C 2.863281 -3.753906 2.382812 -3.894531 2.03125 -4.03125 C 1.675781 -4.175781 1.367188 -4.394531 1.109375 -4.6875 C 0.859375 -4.976562 0.734375 -5.367188 0.734375 -5.859375 C 0.734375 -6.265625 0.835938 -6.628906 1.046875 -6.953125 C 1.265625 -7.285156 1.59375 -7.550781 2.03125 -7.75 C 2.46875 -7.945312 3.015625 -8.046875 3.671875 -8.046875 C 4.128906 -8.046875 4.578125 -7.984375 5.015625 -7.859375 C 5.453125 -7.734375 5.828125 -7.5625 6.140625 -7.34375 L 5.859375 -6.671875 C 5.523438 -6.890625 5.164062 -7.050781 4.78125 -7.15625 C 4.40625 -7.269531 4.035156 -7.328125 3.671875 -7.328125 C 2.972656 -7.328125 2.445312 -7.191406 2.09375 -6.921875 C 1.738281 -6.660156 1.5625 -6.316406 1.5625 -5.890625 C 1.5625 -5.566406 1.65625 -5.304688 1.84375 -5.109375 C 2.039062 -4.921875 2.285156 -4.773438 2.578125 -4.671875 C 2.867188 -4.566406 3.265625 -4.453125 3.765625 -4.328125 C 4.347656 -4.191406 4.816406 -4.050781 5.171875 -3.90625 C 5.535156 -3.769531 5.84375 -3.554688 6.09375 -3.265625 C 6.351562 -2.984375 6.484375 -2.597656 6.484375 -2.109375 C 6.484375 -1.703125 6.375 -1.332031 6.15625 -1 C 5.9375 -0.675781 5.601562 -0.414062 5.15625 -0.21875 C 4.707031 -0.03125 4.15625 0.0625 3.5 0.0625 Z M 3.5 0.0625 "/></g></g></g><g fill="#040d16" fill-opacity="1"><g transform="translate(99.680934, 287.193232)"><g><path d="M 4.765625 0.0625 C 3.972656 0.0625 3.257812 -0.109375 2.625 -0.453125 C 1.988281 -0.804688 1.488281 -1.289062 1.125 -1.90625 C 0.769531 -2.53125 0.59375 -3.222656 0.59375 -3.984375 C 0.59375 -4.753906 0.769531 -5.445312 1.125 -6.0625 C 1.488281 -6.6875 1.988281 -7.171875 2.625 -7.515625 C 3.269531 -7.867188 3.988281 -8.046875 4.78125 -8.046875 C 5.375 -8.046875 5.921875 -7.945312 6.421875 -7.75 C 6.921875 -7.550781 7.347656 -7.265625 7.703125 -6.890625 L 7.15625 -6.359375 C 6.539062 -6.984375 5.753906 -7.296875 4.796875 -7.296875 C 4.171875 -7.296875 3.597656 -7.148438 3.078125 -6.859375 C 2.554688 -6.578125 2.148438 -6.179688 1.859375 -5.671875 C 1.566406 -5.171875 1.421875 -4.609375 1.421875 -3.984375 C 1.421875 -3.367188 1.566406 -2.804688 1.859375 -2.296875 C 2.148438 -1.796875 2.554688 -1.398438 3.078125 -1.109375 C 3.597656 -0.828125 4.171875 -0.6875 4.796875 -0.6875 C 5.753906 -0.6875 6.539062 -1.003906 7.15625 -1.640625 L 7.703125 -1.109375 C 7.347656 -0.722656 6.914062 -0.429688 6.40625 -0.234375 C 5.90625 -0.0351562 5.359375 0.0625 4.765625 0.0625 Z M 4.765625 0.0625 "/></g></g></g><g fill="#040d16" fill-opacity="1"><g transform="translate(112.881937, 287.193232)"><g><path d="M 7.96875 -7.984375 L 7.96875 0 L 7.140625 0 L 7.140625 -3.6875 L 2.140625 -3.6875 L 2.140625 0 L 1.296875 0 L 1.296875 -7.984375 L 2.140625 -7.984375 L 2.140625 -4.421875 L 7.140625 -4.421875 L 7.140625 -7.984375 Z M 7.96875 -7.984375 "/></g></g></g><g fill="#040d16" fill-opacity="1"><g transform="translate(127.154251, 287.193232)"><g><path d="M 4.796875 0.0625 C 4.003906 0.0625 3.285156 -0.113281 2.640625 -0.46875 C 1.992188 -0.820312 1.488281 -1.304688 1.125 -1.921875 C 0.769531 -2.535156 0.59375 -3.222656 0.59375 -3.984375 C 0.59375 -4.753906 0.769531 -5.445312 1.125 -6.0625 C 1.488281 -6.675781 1.992188 -7.160156 2.640625 -7.515625 C 3.285156 -7.867188 4.003906 -8.046875 4.796875 -8.046875 C 5.585938 -8.046875 6.296875 -7.867188 6.921875 -7.515625 C 7.554688 -7.171875 8.054688 -6.6875 8.421875 -6.0625 C 8.796875 -5.445312 8.984375 -4.753906 8.984375 -3.984375 C 8.984375 -3.222656 8.796875 -2.53125 8.421875 -1.90625 C 8.054688 -1.289062 7.554688 -0.804688 6.921875 -0.453125 C 6.296875 -0.109375 5.585938 0.0625 4.796875 0.0625 Z M 4.796875 -0.6875 C 5.421875 -0.6875 5.988281 -0.828125 6.5 -1.109375 C 7.007812 -1.398438 7.40625 -1.796875 7.6875 -2.296875 C 7.976562 -2.804688 8.125 -3.367188 8.125 -3.984375 C 8.125 -4.609375 7.976562 -5.171875 7.6875 -5.671875 C 7.40625 -6.179688 7.007812 -6.578125 6.5 -6.859375 C 5.988281 -7.148438 5.421875 -7.296875 4.796875 -7.296875 C 4.160156 -7.296875 3.582031 -7.148438 3.0625 -6.859375 C 2.550781 -6.578125 2.148438 -6.179688 1.859375 -5.671875 C 1.566406 -5.171875 1.421875 -4.609375 1.421875 -3.984375 C 1.421875 -3.367188 1.566406 -2.804688 1.859375 -2.296875 C 2.148438 -1.796875 2.550781 -1.398438 3.0625 -1.109375 C 3.582031 -0.828125 4.160156 -0.6875 4.796875 -0.6875 Z M 4.796875 -0.6875 "/></g></g></g><g fill="#040d16" fill-opacity="1"><g transform="translate(141.722881, 287.193232)"><g><path d="M 4.796875 0.0625 C 4.003906 0.0625 3.285156 -0.113281 2.640625 -0.46875 C 1.992188 -0.820312 1.488281 -1.304688 1.125 -1.921875 C 0.769531 -2.535156 0.59375 -3.222656 0.59375 -3.984375 C 0.59375 -4.753906 0.769531 -5.445312 1.125 -6.0625 C 1.488281 -6.675781 1.992188 -7.160156 2.640625 -7.515625 C 3.285156 -7.867188 4.003906 -8.046875 4.796875 -8.046875 C 5.585938 -8.046875 6.296875 -7.867188 6.921875 -7.515625 C 7.554688 -7.171875 8.054688 -6.6875 8.421875 -6.0625 C 8.796875 -5.445312 8.984375 -4.753906 8.984375 -3.984375 C 8.984375 -3.222656 8.796875 -2.53125 8.421875 -1.90625 C 8.054688 -1.289062 7.554688 -0.804688 6.921875 -0.453125 C 6.296875 -0.109375 5.585938 0.0625 4.796875 0.0625 Z M 4.796875 -0.6875 C 5.421875 -0.6875 5.988281 -0.828125 6.5 -1.109375 C 7.007812 -1.398438 7.40625 -1.796875 7.6875 -2.296875 C 7.976562 -2.804688 8.125 -3.367188 8.125 -3.984375 C 8.125 -4.609375 7.976562 -5.171875 7.6875 -5.671875 C 7.40625 -6.179688 7.007812 -6.578125 6.5 -6.859375 C 5.988281 -7.148438 5.421875 -7.296875 4.796875 -7.296875 C 4.160156 -7.296875 3.582031 -7.148438 3.0625 -6.859375 C 2.550781 -6.578125 2.148438 -6.179688 1.859375 -5.671875 C 1.566406 -5.171875 1.421875 -4.609375 1.421875 -3.984375 C 1.421875 -3.367188 1.566406 -2.804688 1.859375 -2.296875 C 2.148438 -1.796875 2.550781 -1.398438 3.0625 -1.109375 C 3.582031 -0.828125 4.160156 -0.6875 4.796875 -0.6875 Z M 4.796875 -0.6875 "/></g></g></g><g fill="#040d16" fill-opacity="1"><g transform="translate(156.291512, 287.193232)"><g><path d="M 1.296875 -7.984375 L 2.140625 -7.984375 L 2.140625 -0.734375 L 6.609375 -0.734375 L 6.609375 0 L 1.296875 0 Z M 1.296875 -7.984375 "/></g></g></g><g fill="#040d16" fill-opacity="1"><g transform="translate(168.010918, 287.193232)"><g/></g></g><g fill="#040d16" fill-opacity="1"><g transform="translate(176.003542, 287.193232)"><g><path d="M 6.953125 -0.734375 L 6.953125 0 L 1.296875 0 L 1.296875 -7.984375 L 6.78125 -7.984375 L 6.78125 -7.25 L 2.140625 -7.25 L 2.140625 -4.421875 L 6.265625 -4.421875 L 6.265625 -3.703125 L 2.140625 -3.703125 L 2.140625 -0.734375 Z M 6.953125 -0.734375 "/></g></g></g><g fill="#040d16" fill-opacity="1"><g transform="translate(188.634695, 287.193232)"><g><path d="M 1.296875 -7.984375 L 4.546875 -7.984375 C 5.390625 -7.984375 6.132812 -7.8125 6.78125 -7.46875 C 7.425781 -7.132812 7.925781 -6.664062 8.28125 -6.0625 C 8.644531 -5.457031 8.828125 -4.765625 8.828125 -3.984375 C 8.828125 -3.210938 8.644531 -2.523438 8.28125 -1.921875 C 7.925781 -1.316406 7.425781 -0.84375 6.78125 -0.5 C 6.132812 -0.164062 5.390625 0 4.546875 0 L 1.296875 0 Z M 4.5 -0.734375 C 5.207031 -0.734375 5.820312 -0.867188 6.34375 -1.140625 C 6.863281 -1.421875 7.269531 -1.804688 7.5625 -2.296875 C 7.851562 -2.785156 8 -3.347656 8 -3.984375 C 8 -4.628906 7.851562 -5.195312 7.5625 -5.6875 C 7.269531 -6.175781 6.863281 -6.554688 6.34375 -6.828125 C 5.820312 -7.109375 5.207031 -7.25 4.5 -7.25 L 2.140625 -7.25 L 2.140625 -0.734375 Z M 4.5 -0.734375 "/></g></g></g><g fill="#040d16" fill-opacity="1"><g transform="translate(203.055167, 287.193232)"><g><path d="M 4.515625 0.0625 C 3.484375 0.0625 2.675781 -0.226562 2.09375 -0.8125 C 1.519531 -1.40625 1.234375 -2.269531 1.234375 -3.40625 L 1.234375 -7.984375 L 2.078125 -7.984375 L 2.078125 -3.4375 C 2.078125 -2.507812 2.285156 -1.816406 2.703125 -1.359375 C 3.117188 -0.910156 3.722656 -0.6875 4.515625 -0.6875 C 5.316406 -0.6875 5.925781 -0.910156 6.34375 -1.359375 C 6.757812 -1.816406 6.96875 -2.507812 6.96875 -3.4375 L 6.96875 -7.984375 L 7.796875 -7.984375 L 7.796875 -3.40625 C 7.796875 -2.269531 7.503906 -1.40625 6.921875 -0.8125 C 6.347656 -0.226562 5.546875 0.0625 4.515625 0.0625 Z M 4.515625 0.0625 "/></g></g></g><g fill="#040d16" fill-opacity="1"><g transform="translate(217.088135, 287.193232)"><g><path d="M 4.765625 0.0625 C 3.972656 0.0625 3.257812 -0.109375 2.625 -0.453125 C 1.988281 -0.804688 1.488281 -1.289062 1.125 -1.90625 C 0.769531 -2.53125 0.59375 -3.222656 0.59375 -3.984375 C 0.59375 -4.753906 0.769531 -5.445312 1.125 -6.0625 C 1.488281 -6.6875 1.988281 -7.171875 2.625 -7.515625 C 3.269531 -7.867188 3.988281 -8.046875 4.78125 -8.046875 C 5.375 -8.046875 5.921875 -7.945312 6.421875 -7.75 C 6.921875 -7.550781 7.347656 -7.265625 7.703125 -6.890625 L 7.15625 -6.359375 C 6.539062 -6.984375 5.753906 -7.296875 4.796875 -7.296875 C 4.171875 -7.296875 3.597656 -7.148438 3.078125 -6.859375 C 2.554688 -6.578125 2.148438 -6.179688 1.859375 -5.671875 C 1.566406 -5.171875 1.421875 -4.609375 1.421875 -3.984375 C 1.421875 -3.367188 1.566406 -2.804688 1.859375 -2.296875 C 2.148438 -1.796875 2.554688 -1.398438 3.078125 -1.109375 C 3.597656 -0.828125 4.171875 -0.6875 4.796875 -0.6875 C 5.753906 -0.6875 6.539062 -1.003906 7.15625 -1.640625 L 7.703125 -1.109375 C 7.347656 -0.722656 6.914062 -0.429688 6.40625 -0.234375 C 5.90625 -0.0351562 5.359375 0.0625 4.765625 0.0625 Z M 4.765625 0.0625 "/></g></g></g><g fill="#040d16" fill-opacity="1"><g transform="translate(230.289132, 287.193232)"><g><path d="M 6.3125 -2.140625 L 1.859375 -2.140625 L 0.90625 0 L 0.015625 0 L 3.671875 -7.984375 L 4.5 -7.984375 L 8.15625 0 L 7.265625 0 Z M 6 -2.8125 L 4.078125 -7.109375 L 2.171875 -2.8125 Z M 6 -2.8125 "/></g></g></g><g fill="#040d16" fill-opacity="1"><g transform="translate(243.467345, 287.193232)"><g><path d="M 2.84375 -7.25 L 0.046875 -7.25 L 0.046875 -7.984375 L 6.5 -7.984375 L 6.5 -7.25 L 3.703125 -7.25 L 3.703125 0 L 2.84375 0 Z M 2.84375 -7.25 "/></g></g></g><g fill="#040d16" fill-opacity="1"><g transform="translate(255.015789, 287.193232)"><g><path d="M 1.296875 -7.984375 L 2.140625 -7.984375 L 2.140625 0 L 1.296875 0 Z M 1.296875 -7.984375 "/></g></g></g><g fill="#040d16" fill-opacity="1"><g transform="translate(263.464286, 287.193232)"><g><path d="M 4.796875 0.0625 C 4.003906 0.0625 3.285156 -0.113281 2.640625 -0.46875 C 1.992188 -0.820312 1.488281 -1.304688 1.125 -1.921875 C 0.769531 -2.535156 0.59375 -3.222656 0.59375 -3.984375 C 0.59375 -4.753906 0.769531 -5.445312 1.125 -6.0625 C 1.488281 -6.675781 1.992188 -7.160156 2.640625 -7.515625 C 3.285156 -7.867188 4.003906 -8.046875 4.796875 -8.046875 C 5.585938 -8.046875 6.296875 -7.867188 6.921875 -7.515625 C 7.554688 -7.171875 8.054688 -6.6875 8.421875 -6.0625 C 8.796875 -5.445312 8.984375 -4.753906 8.984375 -3.984375 C 8.984375 -3.222656 8.796875 -2.53125 8.421875 -1.90625 C 8.054688 -1.289062 7.554688 -0.804688 6.921875 -0.453125 C 6.296875 -0.109375 5.585938 0.0625 4.796875 0.0625 Z M 4.796875 -0.6875 C 5.421875 -0.6875 5.988281 -0.828125 6.5 -1.109375 C 7.007812 -1.398438 7.40625 -1.796875 7.6875 -2.296875 C 7.976562 -2.804688 8.125 -3.367188 8.125 -3.984375 C 8.125 -4.609375 7.976562 -5.171875 7.6875 -5.671875 C 7.40625 -6.179688 7.007812 -6.578125 6.5 -6.859375 C 5.988281 -7.148438 5.421875 -7.296875 4.796875 -7.296875 C 4.160156 -7.296875 3.582031 -7.148438 3.0625 -6.859375 C 2.550781 -6.578125 2.148438 -6.179688 1.859375 -5.671875 C 1.566406 -5.171875 1.421875 -4.609375 1.421875 -3.984375 C 1.421875 -3.367188 1.566406 -2.804688 1.859375 -2.296875 C 2.148438 -1.796875 2.550781 -1.398438 3.0625 -1.109375 C 3.582031 -0.828125 4.160156 -0.6875 4.796875 -0.6875 Z M 4.796875 -0.6875 "/></g></g></g><g fill="#040d16" fill-opacity="1"><g transform="translate(278.032924, 287.193232)"><g><path d="M 7.96875 -7.984375 L 7.96875 0 L 7.28125 0 L 2.140625 -6.484375 L 2.140625 0 L 1.296875 0 L 1.296875 -7.984375 L 2 -7.984375 L 7.140625 -1.5 L 7.140625 -7.984375 Z M 7.96875 -7.984375 "/></g></g></g><g fill="#040d16" fill-opacity="1"><g transform="translate(39.082145, 262.129054)"><g><path d="M 8.9375 -5.4375 L 19.25 -5.4375 L 19.25 0 L 3.078125 0 L 3.078125 -26.953125 L 8.9375 -26.953125 Z M 8.9375 -5.4375 "/></g></g></g><g fill="#040d16" fill-opacity="1"><g transform="translate(60.338172, 262.129054)"><g><path d="M 3.078125 0 L 3.078125 -26.953125 L 8.9375 -26.953125 L 8.9375 0 Z M 3.078125 0 "/></g></g></g><g fill="#040d16" fill-opacity="1"><g transform="translate(73.507778, 262.129054)"><g><path d="M 19.296875 -14.21875 C 20.472656 -13.59375 21.390625 -12.722656 22.046875 -11.609375 C 22.703125 -10.492188 23.03125 -9.21875 23.03125 -7.78125 C 23.03125 -6.34375 22.648438 -5.03125 21.890625 -3.84375 C 21.140625 -2.664062 20.113281 -1.726562 18.8125 -1.03125 C 17.519531 -0.34375 16.101562 0 14.5625 0 L 3.078125 0 L 3.078125 -26.953125 L 14.25 -26.953125 C 15.789062 -26.953125 17.171875 -26.648438 18.390625 -26.046875 C 19.609375 -25.453125 20.570312 -24.628906 21.28125 -23.578125 C 21.988281 -22.523438 22.34375 -21.34375 22.34375 -20.03125 C 22.34375 -18.875 22.070312 -17.78125 21.53125 -16.75 C 20.988281 -15.726562 20.242188 -14.882812 19.296875 -14.21875 Z M 16.671875 -19.109375 C 16.671875 -19.953125 16.398438 -20.644531 15.859375 -21.1875 C 15.328125 -21.726562 14.597656 -22 13.671875 -22 L 8.8125 -22 L 8.8125 -16.25 L 13.671875 -16.25 C 14.597656 -16.25 15.328125 -16.519531 15.859375 -17.0625 C 16.398438 -17.601562 16.671875 -18.285156 16.671875 -19.109375 Z M 13.984375 -5.359375 C 14.953125 -5.359375 15.722656 -5.640625 16.296875 -6.203125 C 16.878906 -6.765625 17.171875 -7.492188 17.171875 -8.390625 C 17.171875 -9.265625 16.878906 -9.984375 16.296875 -10.546875 C 15.722656 -11.117188 14.953125 -11.40625 13.984375 -11.40625 L 8.8125 -11.40625 L 8.8125 -5.359375 Z M 13.984375 -5.359375 "/></g></g></g><g fill="#040d16" fill-opacity="1"><g transform="translate(99.384622, 262.129054)"><g><path d="M 17.90625 0 L 12.671875 -9.203125 L 8.9375 -9.203125 L 8.9375 0 L 3.078125 0 L 3.078125 -26.953125 L 13.984375 -26.953125 C 15.773438 -26.953125 17.375 -26.566406 18.78125 -25.796875 C 20.195312 -25.035156 21.316406 -23.984375 22.140625 -22.640625 C 22.960938 -21.304688 23.375 -19.769531 23.375 -18.03125 C 23.375 -16.28125 22.929688 -14.71875 22.046875 -13.34375 C 21.160156 -11.96875 19.972656 -10.921875 18.484375 -10.203125 L 24.453125 0 Z M 8.9375 -21.5625 L 8.9375 -14.59375 L 13.59375 -14.59375 C 14.800781 -14.59375 15.75 -14.921875 16.4375 -15.578125 C 17.132812 -16.234375 17.484375 -17.0625 17.484375 -18.0625 C 17.484375 -19.09375 17.132812 -19.929688 16.4375 -20.578125 C 15.75 -21.234375 14.800781 -21.5625 13.59375 -21.5625 Z M 8.9375 -21.5625 "/></g></g></g><g fill="#040d16" fill-opacity="1"><g transform="translate(125.993095, 262.129054)"><g><path d="M 20.984375 0 L 19.109375 -5.125 L 8.359375 -5.125 L 6.515625 0 L 0.34375 0 L 10.90625 -26.953125 L 16.40625 -26.953125 L 27.3125 0 Z M 13.71875 -19.828125 L 10.203125 -10.203125 L 17.25 -10.203125 Z M 13.71875 -19.828125 "/></g></g></g><g fill="#040d16" fill-opacity="1"><g transform="translate(154.796456, 262.129054)"><g><path d="M 17.90625 0 L 12.671875 -9.203125 L 8.9375 -9.203125 L 8.9375 0 L 3.078125 0 L 3.078125 -26.953125 L 13.984375 -26.953125 C 15.773438 -26.953125 17.375 -26.566406 18.78125 -25.796875 C 20.195312 -25.035156 21.316406 -23.984375 22.140625 -22.640625 C 22.960938 -21.304688 23.375 -19.769531 23.375 -18.03125 C 23.375 -16.28125 22.929688 -14.71875 22.046875 -13.34375 C 21.160156 -11.96875 19.972656 -10.921875 18.484375 -10.203125 L 24.453125 0 Z M 8.9375 -21.5625 L 8.9375 -14.59375 L 13.59375 -14.59375 C 14.800781 -14.59375 15.75 -14.921875 16.4375 -15.578125 C 17.132812 -16.234375 17.484375 -17.0625 17.484375 -18.0625 C 17.484375 -19.09375 17.132812 -19.929688 16.4375 -20.578125 C 15.75 -21.234375 14.800781 -21.5625 13.59375 -21.5625 Z M 8.9375 -21.5625 "/></g></g></g><g fill="#040d16" fill-opacity="1"><g transform="translate(181.404929, 262.129054)"><g><path d="M 25.53125 -26.953125 L 16.0625 -10.90625 L 16.0625 0 L 10.046875 0 L 10.046875 -10.9375 L 0.65625 -26.953125 L 6.859375 -26.953125 L 13.09375 -16.171875 L 19.328125 -26.953125 Z M 25.53125 -26.953125 "/></g></g></g><g fill="#040d16" fill-opacity="1"><g transform="translate(208.70652, 262.129054)"><g/></g></g><g fill="#040d16" fill-opacity="1"><g transform="translate(219.065125, 262.129054)"><g><path d="M 19.296875 -14.21875 C 20.472656 -13.59375 21.390625 -12.722656 22.046875 -11.609375 C 22.703125 -10.492188 23.03125 -9.21875 23.03125 -7.78125 C 23.03125 -6.34375 22.648438 -5.03125 21.890625 -3.84375 C 21.140625 -2.664062 20.113281 -1.726562 18.8125 -1.03125 C 17.519531 -0.34375 16.101562 0 14.5625 0 L 3.078125 0 L 3.078125 -26.953125 L 14.25 -26.953125 C 15.789062 -26.953125 17.171875 -26.648438 18.390625 -26.046875 C 19.609375 -25.453125 20.570312 -24.628906 21.28125 -23.578125 C 21.988281 -22.523438 22.34375 -21.34375 22.34375 -20.03125 C 22.34375 -18.875 22.070312 -17.78125 21.53125 -16.75 C 20.988281 -15.726562 20.242188 -14.882812 19.296875 -14.21875 Z M 16.671875 -19.109375 C 16.671875 -19.953125 16.398438 -20.644531 15.859375 -21.1875 C 15.328125 -21.726562 14.597656 -22 13.671875 -22 L 8.8125 -22 L 8.8125 -16.25 L 13.671875 -16.25 C 14.597656 -16.25 15.328125 -16.519531 15.859375 -17.0625 C 16.398438 -17.601562 16.671875 -18.285156 16.671875 -19.109375 Z M 13.984375 -5.359375 C 14.953125 -5.359375 15.722656 -5.640625 16.296875 -6.203125 C 16.878906 -6.765625 17.171875 -7.492188 17.171875 -8.390625 C 17.171875 -9.265625 16.878906 -9.984375 16.296875 -10.546875 C 15.722656 -11.117188 14.953125 -11.40625 13.984375 -11.40625 L 8.8125 -11.40625 L 8.8125 -5.359375 Z M 13.984375 -5.359375 "/></g></g></g><g fill="#040d16" fill-opacity="1"><g transform="translate(244.941966, 262.129054)"><g><path d="M 15.875 0.578125 C 13.8125 0.578125 11.90625 0.222656 10.15625 -0.484375 C 8.414062 -1.191406 6.894531 -2.179688 5.59375 -3.453125 C 4.300781 -4.722656 3.296875 -6.207031 2.578125 -7.90625 C 1.859375 -9.613281 1.5 -11.472656 1.5 -13.484375 C 1.5 -15.484375 1.859375 -17.335938 2.578125 -19.046875 C 3.296875 -20.753906 4.300781 -22.242188 5.59375 -23.515625 C 6.894531 -24.785156 8.414062 -25.769531 10.15625 -26.46875 C 11.90625 -27.175781 13.8125 -27.53125 15.875 -27.53125 C 17.925781 -27.53125 19.820312 -27.175781 21.5625 -26.46875 C 23.3125 -25.769531 24.828125 -24.785156 26.109375 -23.515625 C 27.398438 -22.242188 28.40625 -20.753906 29.125 -19.046875 C 29.84375 -17.335938 30.203125 -15.484375 30.203125 -13.484375 C 30.203125 -11.472656 29.84375 -9.613281 29.125 -7.90625 C 28.40625 -6.207031 27.398438 -4.722656 26.109375 -3.453125 C 24.828125 -2.179688 23.3125 -1.191406 21.5625 -0.484375 C 19.820312 0.222656 17.925781 0.578125 15.875 0.578125 Z M 15.875 -4.9375 C 17.488281 -4.9375 18.929688 -5.304688 20.203125 -6.046875 C 21.472656 -6.785156 22.472656 -7.796875 23.203125 -9.078125 C 23.929688 -10.367188 24.296875 -11.835938 24.296875 -13.484375 C 24.296875 -15.097656 23.929688 -16.550781 23.203125 -17.84375 C 22.472656 -19.144531 21.472656 -20.164062 20.203125 -20.90625 C 18.929688 -21.65625 17.488281 -22.03125 15.875 -22.03125 C 14.28125 -22.03125 12.835938 -21.65625 11.546875 -20.90625 C 10.265625 -20.164062 9.25 -19.144531 8.5 -17.84375 C 7.757812 -16.550781 7.390625 -15.097656 7.390625 -13.484375 C 7.390625 -11.859375 7.757812 -10.394531 8.5 -9.09375 C 9.25 -7.800781 10.265625 -6.785156 11.546875 -6.046875 C 12.835938 -5.304688 14.28125 -4.9375 15.875 -4.9375 Z M 15.875 -4.9375 "/></g></g></g><g fill="#040d16" fill-opacity="1"><g transform="translate(277.788543, 262.129054)"><g><path d="M 15.875 0.578125 C 13.8125 0.578125 11.90625 0.222656 10.15625 -0.484375 C 8.414062 -1.191406 6.894531 -2.179688 5.59375 -3.453125 C 4.300781 -4.722656 3.296875 -6.207031 2.578125 -7.90625 C 1.859375 -9.613281 1.5 -11.472656 1.5 -13.484375 C 1.5 -15.484375 1.859375 -17.335938 2.578125 -19.046875 C 3.296875 -20.753906 4.300781 -22.242188 5.59375 -23.515625 C 6.894531 -24.785156 8.414062 -25.769531 10.15625 -26.46875 C 11.90625 -27.175781 13.8125 -27.53125 15.875 -27.53125 C 17.925781 -27.53125 19.820312 -27.175781 21.5625 -26.46875 C 23.3125 -25.769531 24.828125 -24.785156 26.109375 -23.515625 C 27.398438 -22.242188 28.40625 -20.753906 29.125 -19.046875 C 29.84375 -17.335938 30.203125 -15.484375 30.203125 -13.484375 C 30.203125 -11.472656 29.84375 -9.613281 29.125 -7.90625 C 28.40625 -6.207031 27.398438 -4.722656 26.109375 -3.453125 C 24.828125 -2.179688 23.3125 -1.191406 21.5625 -0.484375 C 19.820312 0.222656 17.925781 0.578125 15.875 0.578125 Z M 15.875 -4.9375 C 17.488281 -4.9375 18.929688 -5.304688 20.203125 -6.046875 C 21.472656 -6.785156 22.472656 -7.796875 23.203125 -9.078125 C 23.929688 -10.367188 24.296875 -11.835938 24.296875 -13.484375 C 24.296875 -15.097656 23.929688 -16.550781 23.203125 -17.84375 C 22.472656 -19.144531 21.472656 -20.164062 20.203125 -20.90625 C 18.929688 -21.65625 17.488281 -22.03125 15.875 -22.03125 C 14.28125 -22.03125 12.835938 -21.65625 11.546875 -20.90625 C 10.265625 -20.164062 9.25 -19.144531 8.5 -17.84375 C 7.757812 -16.550781 7.390625 -15.097656 7.390625 -13.484375 C 7.390625 -11.859375 7.757812 -10.394531 8.5 -9.09375 C 9.25 -7.800781 10.265625 -6.785156 11.546875 -6.046875 C 12.835938 -5.304688 14.28125 -4.9375 15.875 -4.9375 Z M 15.875 -4.9375 "/></g></g></g><g fill="#040d16" fill-opacity="1"><g transform="translate(310.635121, 262.129054)"><g><path d="M 25.578125 0 L 18.453125 0 L 8.9375 -13.171875 L 8.9375 0 L 3.078125 0 L 3.078125 -26.953125 L 8.9375 -26.953125 L 8.9375 -14.515625 L 17.75 -26.953125 L 24.578125 -26.953125 L 15.375 -14.0625 Z M 25.578125 0 "/></g></g></g></svg>